<?xml version="1.0" encoding="UTF-8" standalone="no"?>
<svg
   xmlns:dc="http://purl.org/dc/elements/1.1/"
   xmlns:cc="http://creativecommons.org/ns#"
   xmlns:rdf="http://www.w3.org/1999/02/22-rdf-syntax-ns#"
   xmlns:svg="http://www.w3.org/2000/svg"
   xmlns="http://www.w3.org/2000/svg"
   xmlns:sodipodi="http://sodipodi.sourceforge.net/DTD/sodipodi-0.dtd"
   xmlns:inkscape="http://www.inkscape.org/namespaces/inkscape"
   width="202.8672"
   height="40.221676"
   viewBox="0 0 53.675282 10.641985"
   version="1.1"
   id="svg8"
   inkscape:version="1.0.1 (3bc2e813f5, 2020-09-07)"
   sodipodi:docname="maisreceitas.svg">
  <defs
     id="defs2" />
  <sodipodi:namedview
     id="base"
     pagecolor="#ffffff"
     bordercolor="#666666"
     borderopacity="1.0"
     inkscape:pageopacity="0.0"
     inkscape:pageshadow="2"
     inkscape:zoom="3.959798"
     inkscape:cx="100.08035"
     inkscape:cy="2.7768207"
     inkscape:document-units="mm"
     inkscape:current-layer="layer1"
     inkscape:document-rotation="0"
     showgrid="false"
     units="px"
     inkscape:window-width="1343"
     inkscape:window-height="707"
     inkscape:window-x="1408"
     inkscape:window-y="27"
     inkscape:window-maximized="0"
     fit-margin-top="0"
     fit-margin-left="0"
     fit-margin-right="0"
     fit-margin-bottom="0"
     showguides="true"
     inkscape:guide-bbox="true" />
  <metadata
     id="metadata5">
    <rdf:RDF>
      <cc:Work
         rdf:about="">
        <dc:format>image/svg+xml</dc:format>
        <dc:type
           rdf:resource="http://purl.org/dc/dcmitype/StillImage" />
        <dc:title></dc:title>
      </cc:Work>
    </rdf:RDF>
  </metadata>
  <g
     inkscape:label="Layer 1"
     inkscape:groupmode="layer"
     id="layer1"
     transform="translate(-24.505972,-107.656)">
    <path
       id="path2"
       style="fill:#616063;stroke-width:0.0207844;fill-opacity:0.2"
       d="m 29.40467,107.656 c -0.4259,0.002 -0.847616,0.10232 -1.230932,0.29766 l -1.436605,0.73225 a 2.7481289,2.7481289 0 0 0 -1.201477,1.20148 l -0.729155,1.43144 a 2.7569414,2.7569414 0 0 0 -0.26665,1.68258 l 0.251147,1.58543 a 2.7543641,2.7543641 0 0 0 0.772046,1.51619 l 1.138432,1.13843 a 2.7442837,2.7442837 0 0 0 1.511536,0.76998 l 1.594218,0.2527 c 0.571777,0.0907 1.157725,-0.002 1.673799,-0.2651 l 1.436605,-0.73174 a 2.7492094,2.7492094 0 0 0 1.201477,-1.20148 l 0.729155,-1.43195 c 0.261053,-0.51212 0.353933,-1.09285 0.268717,-1.66088 -1.454281,-0.0177 -2.62878,-1.19876 -2.62878,-2.6572 -1.458439,0 -2.639844,-1.1742 -2.657719,-2.62827 -0.141645,-0.0215 -0.283847,-0.0321 -0.425814,-0.0315 z m -0.575675,2.9931 c 0.36726,0 0.665075,0.29782 0.665075,0.66508 0,0.36726 -0.297815,0.66507 -0.665075,0.66507 -0.36726,0 -0.665076,-0.29781 -0.665076,-0.66507 0,-0.36726 0.297816,-0.66508 0.665076,-0.66508 z m 3.325378,2.6603 c 0.367258,0 0.665593,0.29782 0.665593,0.66508 0,0.36726 -0.298335,0.66507 -0.665593,0.66507 -0.367261,0 -0.665076,-0.29781 -0.665076,-0.66507 0,-0.36726 0.297815,-0.66508 0.665076,-0.66508 z m -3.990454,0.66508 c 0.36726,0 0.665076,0.29781 0.665076,0.66507 0,0.36726 -0.297816,0.66508 -0.665076,0.66508 -0.36726,0 -0.665075,-0.29782 -0.665075,-0.66508 0,-0.36726 0.297815,-0.66507 0.665075,-0.66507 z" />
    <text
       xml:space="preserve"
       style="font-style:normal;font-variant:normal;font-weight:normal;font-stretch:normal;font-size:10.5833px;line-height:1.25;font-family:Z003;-inkscape-font-specification:Z003;fill:#616063;fill-opacity:1;stroke:none;stroke-width:0.265;stroke-miterlimit:4;stroke-dasharray:none"
       x="27.447891"
       y="115.68223"
       id="text12"
       inkscape:export-xdpi="94.844276"
       inkscape:export-ydpi="94.844276"><tspan
         sodipodi:role="line"
         id="tspan10"
         x="27.447891"
         y="115.68223"
         style="font-style:normal;font-variant:normal;font-weight:normal;font-stretch:normal;font-family:Z003;-inkscape-font-specification:Z003;fill:#616063;fill-opacity:1;stroke-width:0.265;stroke-miterlimit:4;stroke-dasharray:none">MaisReceitas</tspan></text>
    <text
       xml:space="preserve"
       style="font-style:normal;font-weight:normal;font-size:10.5833px;line-height:1.25;font-family:sans-serif;fill:#000000;fill-opacity:1;stroke:none;stroke-width:0.264583"
       x="38.949772"
       y="101.93764"
       id="text1072"><tspan
         sodipodi:role="line"
         id="tspan1070"
         x="38.949772"
         y="101.93764"
         style="stroke-width:0.264583"></tspan></text>
    <rect
       style="fill:#000000;fill-opacity:0;stroke-width:0.264999;stroke-miterlimit:4;stroke-dasharray:none"
       id="rect1357"
       width="0.079062201"
       height="0.93544328"
       x="32.365974"
       y="107.656" />
    <rect
       style="fill:#000000;fill-opacity:0;stroke-width:0.264999;stroke-miterlimit:4;stroke-dasharray:none"
       id="rect1359"
       width="1.2860022"
       height="0.93544328"
       x="32.835888"
       y="107.656" />
    <rect
       style="fill:#000000;fill-opacity:0;stroke-width:0.264999;stroke-miterlimit:4;stroke-dasharray:none"
       id="rect1361"
       width="0.45867008"
       height="1.5210158"
       x="32.777996"
       y="106.13499" />
    <rect
       style="fill:#000000;fill-opacity:0;stroke-width:0.264999;stroke-miterlimit:4;stroke-dasharray:none"
       id="rect1363"
       width="0.28749743"
       height="1.6892259"
       x="30.396404"
       y="106.90221" />
    <rect
       style="fill:#000000;fill-opacity:0;stroke-width:0.264999;stroke-miterlimit:4;stroke-dasharray:none"
       id="rect1365"
       width="0.028788457"
       height="0.93543047"
       x="30.655111"
       y="107.656" />
    <rect
       style="fill:#000000;fill-opacity:0;stroke-width:0.264999;stroke-miterlimit:4;stroke-dasharray:none"
       id="rect1371"
       width="0.093806975"
       height="1.5300442"
       x="36.273151"
       y="115.74091" />
    <rect
       style="fill:#000000;fill-opacity:0;stroke-width:0.264999;stroke-miterlimit:4;stroke-dasharray:none"
       id="rect1373"
       width="0.098855793"
       height="2.5557647"
       x="49.014217"
       y="115.74091" />
  </g>
</svg>
