<?xml version="1.0" encoding="UTF-8" standalone="no"?>
<svg
   xmlns:dc="http://purl.org/dc/elements/1.1/"
   xmlns:cc="http://creativecommons.org/ns#"
   xmlns:rdf="http://www.w3.org/1999/02/22-rdf-syntax-ns#"
   xmlns:svg="http://www.w3.org/2000/svg"
   xmlns="http://www.w3.org/2000/svg"
   xmlns:sodipodi="http://sodipodi.sourceforge.net/DTD/sodipodi-0.dtd"
   xmlns:inkscape="http://www.inkscape.org/namespaces/inkscape"
   width="154.44182mm"
   height="35.375313mm"
   viewBox="0 0 154.44182 35.375313"
   version="1.1"
   id="svg8"
   inkscape:version="1.0.2 (e86c870879, 2021-01-15)"
   sodipodi:docname="maisreceitas-original.svg"
   inkscape:export-filename="/home/luciano/workspace/maisreceitas.com.br/delicias/public/maisreceitas.png"
   inkscape:export-xdpi="82.231613"
   inkscape:export-ydpi="82.231613">
  <defs
     id="defs2">
    <rect
       x="125.29325"
       y="-28.968876"
       width="63.194843"
       height="10.83758"
       id="rect83" />
  </defs>
  <sodipodi:namedview
     id="base"
     pagecolor="#ffffff"
     bordercolor="#666666"
     borderopacity="1.0"
     inkscape:pageopacity="0.0"
     inkscape:pageshadow="2"
     inkscape:zoom="0.7"
     inkscape:cx="387.86632"
     inkscape:cy="139.62032"
     inkscape:document-units="mm"
     inkscape:current-layer="g65"
     inkscape:document-rotation="0"
     showgrid="false"
     inkscape:snap-text-baseline="false"
     inkscape:window-width="1368"
     inkscape:window-height="731"
     inkscape:window-x="0"
     inkscape:window-y="0"
     inkscape:window-maximized="1"
     fit-margin-top="0"
     fit-margin-left="0"
     fit-margin-right="0"
     fit-margin-bottom="0" />
  <metadata
     id="metadata5">
    <rdf:RDF>
      <cc:Work
         rdf:about="">
        <dc:format>image/svg+xml</dc:format>
        <dc:type
           rdf:resource="http://purl.org/dc/dcmitype/StillImage" />
        <dc:title />
      </cc:Work>
    </rdf:RDF>
  </metadata>
  <g
     inkscape:label="Layer 1"
     inkscape:groupmode="layer"
     id="layer1"
     transform="translate(-29.595828,-3.9861027)">
    <text
       xml:space="preserve"
       style="font-style:normal;font-weight:normal;font-size:27.2341px;line-height:1.25;font-family:sans-serif;fill:#000000;fill-opacity:1;stroke:none;stroke-width:0.680853"
       x="28.69157"
       y="38.789604"
       id="text12"><tspan
         sodipodi:role="line"
         id="tspan10"
         x="28.69157"
         y="38.789604"
         style="font-style:normal;font-variant:normal;font-weight:normal;font-stretch:normal;font-family:Symbola;-inkscape-font-specification:Symbola;fill:#fee097;fill-opacity:1;stroke-width:0.680853">MaisReceitas</tspan></text>
    <g
       style="fill:#000000"
       id="g79"
       transform="matrix(0.09789655,-0.02311442,0.02311442,0.09789655,57.380463,10.285413)">
      <g
         id="g67">
        <g
           id="g65">
          <path
             d="M 59.730247,-9.8831182 C 51.624792,-18.161151 41.153306,-23.345077 29.813661,-24.785422 22.092005,-51.150328 -2.3925481,-69.784795 -30.290016,-69.784795 c -27.89703,0 -52.381143,18.634467 -60.103238,44.999373 -11.340086,1.440345 -21.811566,6.624271 -29.917026,14.9023038 -9.37717,9.57653968 -14.54134,22.2340132 -14.54134,35.6393242 0,26.177837 18.30512,47.16033 42.783086,50.502107 V 155.04959 H 31.48894 V 76.258752 c 24.477966,-3.342216 42.782647,-24.324709 42.782647,-50.502107 0,-13.40575 -5.164165,-26.06322352 -14.54134,-35.6397632 z M 17.723543,141.28419 H -78.303136 V 119.14108 H 17.723543 Z M 24.606461,62.957954 H 17.723982 V 105.37612 H 0.68267696 V 77.046112 H -13.082721 V 105.37612 H -23.406659 V 77.046112 H -37.172056 V 105.37612 H -47.495995 V 77.046112 H -61.261392 V 105.37612 H -78.302697 V 62.957954 h -6.882479 c -20.131464,0 -35.900604,-16.340893 -35.900604,-37.201309 0,-20.0396819 16.29829,-36.717387 36.33139,-37.177156 l 5.495268,-0.12603 1.092555,-5.386804 c 4.592418,-22.648112 24.72783,-39.086053 47.876551,-39.086053 22.9959026,0 43.010554,16.224085 47.776868,38.639458 0.09924,3.130556 -0.05357,20.7629289 -15.6747336,24.8973347 L 5.3343775,20.824341 C 16.996344,17.737259 25.185673,9.7679342 29.01664,-2.2225012 c 0.966964,-3.0256034 1.525976,-5.916394 1.845662,-8.4172378 16.848527,3.5371898 29.644326,18.6419328 29.644326,36.395945 -4.39e-4,20.860855 -15.769585,37.201748 -35.900167,37.201748 z"
             id="path63"
             style="stroke-width:0.43913;fill:#fee097;fill-opacity:0.80000001" />
        </g>
      </g>
    </g>
    <text
       xml:space="preserve"
       id="text81"
       style="font-style:normal;font-weight:normal;font-size:10.5833px;line-height:1.25;font-family:sans-serif;white-space:pre;shape-inside:url(#rect83);fill:#000000;fill-opacity:1;stroke:none;" />
  </g>
</svg>
